<svg width="103" height="60" viewBox="0 0 103 60" fill="none" xmlns="http://www.w3.org/2000/svg">
<path fill-rule="evenodd" clip-rule="evenodd" d="M2.48602 29.5971C3.85674 29.5971 4.97204 30.7982 4.97204 32.276C4.97204 33.7579 3.85674 34.959 2.48602 34.959C1.11277 34.959 0 33.7579 0 32.276C0 30.7982 1.11277 29.5971 2.48602 29.5971ZM6.15941 38.8021C8.66566 38.8021 10.7002 40.9943 10.7002 43.695C10.7002 46.397 8.66566 48.5879 6.15941 48.5879C3.65316 48.5879 1.62236 46.397 1.62236 43.695C1.62236 40.9957 3.65316 38.8021 6.15941 38.8021ZM16.1047 48.3588C18.611 48.3588 20.6418 50.5496 20.6418 53.2544C20.6418 55.9551 18.611 58.1473 16.1047 58.1473C13.5985 58.1473 11.5639 55.9551 11.5639 53.2544C11.5639 50.5496 13.5985 48.3588 16.1047 48.3588ZM30.2558 52.7745C32.1058 52.7745 33.6068 54.3928 33.6068 56.3873C33.6068 58.3818 32.1058 60 30.2558 60C28.4059 60 26.9049 58.3818 26.9049 56.3873C26.9049 54.3941 28.4059 52.7745 30.2558 52.7745ZM43.5559 42.2976C46.0622 42.2976 48.0967 44.4912 48.0967 47.1932C48.0967 49.8953 46.0634 52.0861 43.5559 52.0861C41.0522 52.0861 39.0189 49.8953 39.0189 47.1932C39.0189 44.4912 41.0522 42.2976 43.5559 42.2976ZM37.4964 1.80091C39.6511 1.80091 41.3936 3.6809 41.3936 6.00123C41.3936 8.32019 39.6511 10.2015 37.4964 10.2015C35.348 10.2015 33.603 8.32156 33.603 6.00123C33.603 3.6809 35.3493 1.80091 37.4964 1.80091ZM22.9141 0C24.6427 0 26.0476 1.51326 26.0476 3.37825C26.0476 5.2446 24.644 6.75922 22.9141 6.75922C21.1855 6.75922 19.7807 5.24324 19.7807 3.37825C19.7807 1.51326 21.1843 0 22.9141 0ZM10.1603 7.45723C11.5336 7.45723 12.6463 8.65829 12.6463 10.1361C12.6463 11.618 11.5336 12.8191 10.1603 12.8191C8.78579 12.8191 7.67429 11.618 7.67429 10.1361C7.67429 8.65829 8.78579 7.45723 10.1603 7.45723ZM47.228 11.1109C49.862 11.1109 52.0003 13.4148 52.0003 16.2559C52.0003 19.097 49.862 21.4024 47.228 21.4024C44.5903 21.4024 42.4533 19.097 42.4533 16.2559C42.4533 13.4148 44.5903 11.1109 47.228 11.1109ZM3.13345 19.4597C4.20954 19.4597 5.08079 20.399 5.08079 21.5564C5.08079 22.7139 4.20954 23.6518 3.13345 23.6518C2.06114 23.6518 1.1899 22.7139 1.1899 21.5564C1.1899 20.399 2.06114 19.4597 3.13345 19.4597Z" fill="#1BBF00"/>
<path d="M94.854 30.662C94.6833 30.0335 94.3419 29.5223 93.8323 29.1269C93.3227 28.7329 92.7296 28.5366 92.0556 28.5366C91.3248 28.5366 90.6824 28.7588 90.1323 29.2005C89.7871 29.4759 89.4659 29.9654 89.1713 30.662H94.854ZM97.4918 32.891H89.0537C89.1776 33.6912 89.5064 34.3293 90.035 34.8023C90.561 35.2754 91.235 35.514 92.0556 35.514C93.0369 35.514 93.8816 35.1418 94.5859 34.4029L96.8013 35.5249C96.2488 36.366 95.5887 36.9904 94.8173 37.3967C94.0472 37.8016 93.1355 38.002 92.0759 38.002C90.4333 38.002 89.0967 37.4444 88.0687 36.3292C87.033 35.2113 86.5171 33.8126 86.5171 32.133C86.5171 30.4112 87.033 28.9851 88.0623 27.8468C89.0942 26.7112 90.3814 26.1413 91.933 26.1413C93.5781 26.1413 94.9185 26.7098 95.9541 27.8468C96.9834 28.9851 97.5019 30.4861 97.5019 32.3525L97.4918 32.891ZM81.4199 22.2764H84.0374V26.429H85.5928V28.8679H84.0374V37.7102H81.4199V28.8679H80.0732V26.429H81.4199V22.2764ZM73.0729 28.7534C72.2585 28.7534 71.582 29.0601 71.0459 29.6804C70.5059 30.3007 70.2379 31.0928 70.2379 32.058C70.2379 33.0369 70.5097 33.8357 71.0585 34.4656C71.6048 35.0968 72.2813 35.4104 73.083 35.4104C73.9113 35.4104 74.5941 35.0995 75.1404 34.4806C75.6866 33.8644 75.9585 33.0532 75.9585 32.0498C75.9585 31.071 75.6866 30.2721 75.1404 29.6695C74.5941 29.0574 73.9075 28.7534 73.0729 28.7534ZM75.8346 26.429H78.4521V37.7102H75.8346V36.5174C75.3224 37.0449 74.8053 37.4199 74.2893 37.6557C73.7734 37.8834 73.2132 38.0006 72.6101 38.0006C71.2558 38.0006 70.0899 37.4335 69.1011 36.306C68.1122 35.1772 67.6203 33.7717 67.6203 32.0907C67.6203 30.3512 68.0958 28.9238 69.0518 27.81C70.0065 26.6989 71.1698 26.1413 72.5329 26.1413C73.1627 26.1413 73.7494 26.2695 74.3058 26.5244C74.8558 26.7807 75.3642 27.1651 75.8333 27.6777V26.429H75.8346ZM55.9502 26.429H58.6208L61.2675 33.0859L63.8976 26.429H66.5645L62.1071 37.7102H60.4076L55.9502 26.429ZM49.419 28.8052C48.6009 28.8052 47.9206 29.1119 47.3819 29.7227C46.8394 30.3362 46.5714 31.1173 46.5714 32.0703C46.5714 33.0532 46.8357 33.8467 47.3756 34.4547C47.9118 35.0641 48.5857 35.3695 49.4064 35.3695C50.2271 35.3695 50.9112 35.0627 51.4574 34.4438C51.9999 33.8276 52.2756 33.0382 52.2756 32.0703C52.2756 31.1037 52.0075 30.3184 51.4713 29.7131C50.9339 29.1078 50.2498 28.8052 49.419 28.8052ZM49.376 26.1399C50.3649 26.1399 51.2956 26.4072 52.1643 26.9375C53.0317 27.4664 53.7095 28.1931 54.1976 29.1038C54.687 30.0158 54.9285 31.0001 54.9285 32.0566C54.9285 33.1241 54.6806 34.1193 54.1951 35.045C53.7019 35.972 53.0355 36.6946 52.1883 37.2181C51.3411 37.7375 50.4091 38.0006 49.39 38.0006C47.889 38.0006 46.6093 37.4239 45.5459 36.2733C44.4875 35.1241 43.9538 33.724 43.9538 32.0812C43.9538 30.3184 44.557 28.8502 45.7532 27.675C46.8053 26.6539 48.0116 26.1399 49.376 26.1399ZM32.6441 26.429H35.2578V27.5837C35.8572 27.0397 36.3934 26.6662 36.8827 26.4576C37.362 26.2449 37.8577 26.1399 38.3635 26.1399C39.4054 26.1399 40.283 26.5326 41.0101 27.3124C41.6196 27.9749 41.9218 28.9565 41.9218 30.2585V37.7102H39.3258V32.7683C39.3258 31.4186 39.2726 30.5229 39.1576 30.0799C39.0476 29.6395 38.849 29.3028 38.5708 29.0697C38.2927 28.8379 37.9512 28.7234 37.539 28.7234C37.0029 28.7234 36.5502 28.9129 36.1683 29.3001C35.7864 29.6804 35.5183 30.2121 35.3742 30.8897C35.297 31.2441 35.2566 32.0062 35.2566 33.1814V37.7102H32.6428V26.429H32.6441ZM20.8222 26.429H23.4398V27.5837C24.0366 27.0397 24.5753 26.6662 25.0621 26.4576C25.5452 26.2449 26.0409 26.1399 26.5467 26.1399C27.5861 26.1399 28.4662 26.5326 29.1907 27.3124C29.8002 27.9749 30.1024 28.9565 30.1024 30.2585V37.7102H27.5089V32.7683C27.5089 31.4186 27.452 30.5229 27.3382 30.0799C27.2282 29.6395 27.0335 29.3028 26.7515 29.0697C26.4733 28.8379 26.1319 28.7234 25.7222 28.7234C25.1861 28.7234 24.7308 28.9129 24.3477 29.3001C23.9696 29.6804 23.7015 30.2121 23.5536 30.8897C23.4802 31.2441 23.4398 32.0062 23.4398 33.1814V37.7102H20.8222V26.429ZM15.4102 22.4591H18.0808V37.7102H15.4102V22.4591Z" fill="#F3F3F4"/>
<path d="M57.934 42.7948C57.9897 42.7198 58.0569 42.6823 58.1358 42.6823C58.2007 42.6823 58.2587 42.7098 58.3097 42.7648C58.3607 42.8198 58.3862 42.8873 58.3862 42.9673C58.3862 43.0423 58.3653 43.1048 58.3236 43.1548L56.6332 45.4573V47.7223C56.6332 47.8223 56.6053 47.8998 56.5497 47.9548C56.4987 48.0098 56.4314 48.0373 56.348 48.0373C56.2645 48.0373 56.1949 48.0098 56.1393 47.9548C56.0882 47.8998 56.0627 47.8223 56.0627 47.7223V45.4498L54.3723 43.1548C54.3259 43.0998 54.3027 43.0373 54.3027 42.9673C54.3027 42.8873 54.3282 42.8198 54.3793 42.7648C54.4349 42.7098 54.4975 42.6823 54.5671 42.6823C54.6459 42.6823 54.7132 42.7198 54.7688 42.7948L56.3549 44.9773L57.934 42.7948Z" fill="#1BBF00"/>
<path d="M59.836 48.0523C59.516 48.0523 59.2332 47.9748 58.9874 47.8198C58.7462 47.6648 58.5584 47.4448 58.4239 47.1598C58.294 46.8698 58.2291 46.5348 58.2291 46.1548C58.2291 45.7748 58.294 45.4423 58.4239 45.1573C58.5584 44.8673 58.7462 44.6448 58.9874 44.4898C59.2332 44.3348 59.516 44.2573 59.836 44.2573C60.156 44.2573 60.4389 44.3348 60.6847 44.4898C60.9305 44.6448 61.1184 44.8673 61.2482 45.1573C61.3827 45.4423 61.45 45.7748 61.45 46.1548C61.45 46.5348 61.3827 46.8698 61.2482 47.1598C61.1184 47.4448 60.9305 47.6648 60.6847 47.8198C60.4389 47.9748 60.156 48.0523 59.836 48.0523ZM59.836 47.5498C60.17 47.5498 60.425 47.4323 60.6013 47.1973C60.7821 46.9573 60.8726 46.6098 60.8726 46.1548C60.8726 45.7098 60.7821 45.3673 60.6013 45.1273C60.4204 44.8823 60.1653 44.7598 59.836 44.7598C59.5068 44.7598 59.2517 44.8823 59.0708 45.1273C58.89 45.3673 58.7995 45.7098 58.7995 46.1548C58.7995 46.6048 58.8876 46.9498 59.0639 47.1898C59.2447 47.4298 59.5021 47.5498 59.836 47.5498Z" fill="#1BBF00"/>
<path d="M64.8634 44.2723C64.9516 44.2723 65.0188 44.2998 65.0652 44.3548C65.1162 44.4098 65.1417 44.4823 65.1417 44.5723V47.7448C65.1417 47.8298 65.1162 47.8998 65.0652 47.9548C65.0188 48.0098 64.9516 48.0373 64.8634 48.0373C64.78 48.0373 64.7127 48.0123 64.6617 47.9623C64.6153 47.9073 64.5921 47.8373 64.5921 47.7523V47.3773C64.4855 47.5973 64.3347 47.7648 64.14 47.8798C63.9498 47.9948 63.7342 48.0523 63.493 48.0523C63.0895 48.0523 62.7858 47.9323 62.5817 47.6923C62.3776 47.4473 62.2756 47.0873 62.2756 46.6123V44.5723C62.2756 44.4823 62.3011 44.4098 62.3521 44.3548C62.4031 44.2998 62.4727 44.2723 62.5608 44.2723C62.6489 44.2723 62.7162 44.2998 62.7626 44.3548C62.8136 44.4098 62.8391 44.4823 62.8391 44.5723V46.5973C62.8391 46.9223 62.8994 47.1623 63.02 47.3173C63.1405 47.4673 63.3307 47.5423 63.5904 47.5423C63.8872 47.5423 64.126 47.4398 64.3069 47.2348C64.4878 47.0248 64.5782 46.7498 64.5782 46.4098V44.5723C64.5782 44.4823 64.6037 44.4098 64.6547 44.3548C64.7058 44.2998 64.7753 44.2723 64.8634 44.2723Z" fill="#1BBF00"/>
<path d="M67.8655 44.2723C68.0603 44.2573 68.1577 44.3423 68.1577 44.5273C68.1577 44.6073 68.1368 44.6723 68.0951 44.7223C68.0533 44.7673 67.9814 44.7948 67.8794 44.8048L67.6707 44.8273C67.36 44.8573 67.1281 44.9773 66.9751 45.1873C66.8267 45.3923 66.7525 45.6348 66.7525 45.9148V47.7373C66.7525 47.8373 66.727 47.9123 66.6759 47.9623C66.6249 48.0123 66.5577 48.0373 66.4742 48.0373C66.3907 48.0373 66.3212 48.0123 66.2655 47.9623C66.2145 47.9073 66.189 47.8323 66.189 47.7373V44.5723C66.189 44.4773 66.2168 44.4048 66.2725 44.3548C66.3281 44.2998 66.3954 44.2723 66.4742 44.2723C66.5484 44.2723 66.611 44.2998 66.662 44.3548C66.713 44.4048 66.7385 44.4748 66.7385 44.5648V44.9848C66.8359 44.7648 66.9728 44.5973 67.149 44.4823C67.3299 44.3673 67.5362 44.2998 67.7681 44.2798L67.8655 44.2723Z" fill="#1BBF00"/>
<path d="M72.0836 48.0598C71.7358 48.0598 71.4019 48.0048 71.0819 47.8948C70.7665 47.7798 70.5137 47.6273 70.3236 47.4373C70.254 47.3673 70.2193 47.2798 70.2193 47.1748C70.2193 47.1048 70.2378 47.0448 70.2749 46.9948C70.312 46.9398 70.3561 46.9123 70.4071 46.9123C70.4674 46.9123 70.5323 46.9398 70.6019 46.9948C71.0332 47.3548 71.5248 47.5348 72.0766 47.5348C72.4755 47.5348 72.7816 47.4523 72.9949 47.2873C73.2082 47.1223 73.3149 46.8873 73.3149 46.5823C73.3149 46.4073 73.2639 46.2673 73.1619 46.1623C73.0598 46.0523 72.9253 45.9648 72.7584 45.8998C72.5914 45.8348 72.3665 45.7673 72.0836 45.6973C71.7033 45.6023 71.3903 45.5023 71.1445 45.3973C70.9033 45.2923 70.7062 45.1423 70.5532 44.9473C70.4048 44.7523 70.3306 44.4973 70.3306 44.1823C70.3306 43.8823 70.4048 43.6173 70.5532 43.3873C70.7062 43.1523 70.9172 42.9723 71.1862 42.8473C71.4598 42.7173 71.7706 42.6523 72.1184 42.6523C72.443 42.6523 72.7445 42.7073 73.0227 42.8173C73.3056 42.9223 73.5422 43.0748 73.7323 43.2748C73.8065 43.3548 73.8436 43.4423 73.8436 43.5373C73.8436 43.6073 73.8251 43.6698 73.7879 43.7248C73.7508 43.7748 73.7068 43.7998 73.6558 43.7998C73.6048 43.7998 73.5375 43.7723 73.454 43.7173C73.2268 43.5173 73.0158 43.3773 72.821 43.2973C72.6262 43.2173 72.392 43.1773 72.1184 43.1773C71.7335 43.1773 71.4343 43.2648 71.221 43.4398C71.0077 43.6098 70.901 43.8498 70.901 44.1598C70.901 44.4248 70.9937 44.6248 71.1793 44.7598C71.3694 44.8898 71.6593 45.0048 72.0488 45.1048C72.4708 45.2148 72.8024 45.3173 73.0436 45.4123C73.2848 45.5023 73.4842 45.6398 73.6419 45.8248C73.8042 46.0098 73.8853 46.2573 73.8853 46.5673C73.8853 46.8623 73.8088 47.1223 73.6558 47.3473C73.5074 47.5723 73.2964 47.7473 73.0227 47.8723C72.7491 47.9973 72.4361 48.0598 72.0836 48.0598Z" fill="#1BBF00"/>
<path d="M76.1336 48.0523C75.8136 48.0523 75.5307 47.9748 75.2849 47.8198C75.0437 47.6648 74.8559 47.4448 74.7214 47.1598C74.5916 46.8698 74.5266 46.5348 74.5266 46.1548C74.5266 45.7748 74.5916 45.4423 74.7214 45.1573C74.8559 44.8673 75.0437 44.6448 75.2849 44.4898C75.5307 44.3348 75.8136 44.2573 76.1336 44.2573C76.4536 44.2573 76.7365 44.3348 76.9823 44.4898C77.2281 44.6448 77.4159 44.8673 77.5458 45.1573C77.6803 45.4423 77.7475 45.7748 77.7475 46.1548C77.7475 46.5348 77.6803 46.8698 77.5458 47.1598C77.4159 47.4448 77.2281 47.6648 76.9823 47.8198C76.7365 47.9748 76.4536 48.0523 76.1336 48.0523ZM76.1336 47.5498C76.4675 47.5498 76.7226 47.4323 76.8988 47.1973C77.0797 46.9573 77.1701 46.6098 77.1701 46.1548C77.1701 45.7098 77.0797 45.3673 76.8988 45.1273C76.7179 44.8823 76.4629 44.7598 76.1336 44.7598C75.8043 44.7598 75.5493 44.8823 75.3684 45.1273C75.1875 45.3673 75.0971 45.7098 75.0971 46.1548C75.0971 46.6048 75.1852 46.9498 75.3614 47.1898C75.5423 47.4298 75.7997 47.5498 76.1336 47.5498Z" fill="#1BBF00"/>
<path d="M78.8723 48.0373C78.7888 48.0373 78.7193 48.0123 78.6636 47.9623C78.6126 47.9073 78.5871 47.8323 78.5871 47.7373V42.9748C78.5871 42.8798 78.6126 42.8073 78.6636 42.7573C78.7193 42.7023 78.7888 42.6748 78.8723 42.6748C78.9511 42.6748 79.0161 42.7023 79.0671 42.7573C79.1227 42.8073 79.1506 42.8798 79.1506 42.9748V47.7373C79.1506 47.8323 79.1227 47.9073 79.0671 47.9623C79.0161 48.0123 78.9511 48.0373 78.8723 48.0373Z" fill="#1BBF00"/>
<path d="M82.7778 44.2723C82.866 44.2723 82.9332 44.2998 82.9796 44.3548C83.0306 44.4098 83.0561 44.4823 83.0561 44.5723V47.7448C83.0561 47.8298 83.0306 47.8998 82.9796 47.9548C82.9332 48.0098 82.866 48.0373 82.7778 48.0373C82.6944 48.0373 82.6271 48.0123 82.5761 47.9623C82.5297 47.9073 82.5065 47.8373 82.5065 47.7523V47.3773C82.3999 47.5973 82.2491 47.7648 82.0544 47.8798C81.8642 47.9948 81.6486 48.0523 81.4074 48.0523C81.0039 48.0523 80.7002 47.9323 80.4961 47.6923C80.292 47.4473 80.19 47.0873 80.19 46.6123V44.5723C80.19 44.4823 80.2155 44.4098 80.2665 44.3548C80.3175 44.2998 80.3871 44.2723 80.4752 44.2723C80.5633 44.2723 80.6306 44.2998 80.677 44.3548C80.728 44.4098 80.7535 44.4823 80.7535 44.5723V46.5973C80.7535 46.9223 80.8138 47.1623 80.9344 47.3173C81.0549 47.4673 81.2451 47.5423 81.5048 47.5423C81.8016 47.5423 82.0404 47.4398 82.2213 47.2348C82.4022 47.0248 82.4926 46.7498 82.4926 46.4098V44.5723C82.4926 44.4823 82.5181 44.4098 82.5691 44.3548C82.6202 44.2998 82.6897 44.2723 82.7778 44.2723Z" fill="#1BBF00"/>
<path d="M85.6686 47.5573C85.8309 47.5723 85.9121 47.6523 85.9121 47.7973C85.9121 47.8823 85.8819 47.9473 85.8216 47.9923C85.766 48.0323 85.6802 48.0473 85.5642 48.0373L85.3764 48.0223C85.0054 47.9923 84.7318 47.8723 84.5556 47.6623C84.3793 47.4523 84.2912 47.1348 84.2912 46.7098V44.8273H83.8251C83.7463 44.8273 83.6837 44.8073 83.6373 44.7673C83.5956 44.7223 83.5747 44.6648 83.5747 44.5948C83.5747 44.5198 83.5956 44.4598 83.6373 44.4148C83.6837 44.3698 83.7463 44.3473 83.8251 44.3473H84.2912V43.4998C84.2912 43.4048 84.3167 43.3323 84.3677 43.2823C84.4187 43.2273 84.4883 43.1998 84.5764 43.1998C84.6599 43.1998 84.7271 43.2273 84.7782 43.2823C84.8292 43.3323 84.8547 43.4048 84.8547 43.4998V44.3473H85.6269C85.7011 44.3473 85.759 44.3698 85.8008 44.4148C85.8471 44.4598 85.8703 44.5198 85.8703 44.5948C85.8703 44.6648 85.8471 44.7223 85.8008 44.7673C85.759 44.8073 85.7011 44.8273 85.6269 44.8273H84.8547V46.7398C84.8547 47.0148 84.9057 47.2148 85.0077 47.3398C85.1144 47.4598 85.2721 47.5273 85.4808 47.5423L85.6686 47.5573Z" fill="#1BBF00"/>
<path d="M86.7527 48.0373C86.6693 48.0373 86.5997 48.0123 86.544 47.9623C86.493 47.9073 86.4675 47.8323 86.4675 47.7373V44.5723C86.4675 44.4773 86.493 44.4048 86.544 44.3548C86.5997 44.2998 86.6693 44.2723 86.7527 44.2723C86.8362 44.2723 86.9035 44.2998 86.9545 44.3548C87.0055 44.4048 87.031 44.4773 87.031 44.5723V47.7373C87.031 47.8373 87.0055 47.9123 86.9545 47.9623C86.9035 48.0123 86.8362 48.0373 86.7527 48.0373ZM86.7527 43.4848C86.6414 43.4848 86.551 43.4498 86.4814 43.3798C86.4119 43.3098 86.3771 43.2173 86.3771 43.1023C86.3771 42.9923 86.4119 42.9023 86.4814 42.8323C86.551 42.7623 86.6414 42.7273 86.7527 42.7273C86.864 42.7273 86.9545 42.7623 87.024 42.8323C87.0936 42.9023 87.1284 42.9923 87.1284 43.1023C87.1284 43.2173 87.0936 43.3098 87.024 43.3798C86.9545 43.4498 86.864 43.4848 86.7527 43.4848Z" fill="#1BBF00"/>
<path d="M89.4896 48.0523C89.1696 48.0523 88.8867 47.9748 88.6409 47.8198C88.3997 47.6648 88.2119 47.4448 88.0774 47.1598C87.9475 46.8698 87.8826 46.5348 87.8826 46.1548C87.8826 45.7748 87.9475 45.4423 88.0774 45.1573C88.2119 44.8673 88.3997 44.6448 88.6409 44.4898C88.8867 44.3348 89.1696 44.2573 89.4896 44.2573C89.8096 44.2573 90.0925 44.3348 90.3383 44.4898C90.5841 44.6448 90.7719 44.8673 90.9017 45.1573C91.0362 45.4423 91.1035 45.7748 91.1035 46.1548C91.1035 46.5348 91.0362 46.8698 90.9017 47.1598C90.7719 47.4448 90.5841 47.6648 90.3383 47.8198C90.0925 47.9748 89.8096 48.0523 89.4896 48.0523ZM89.4896 47.5498C89.8235 47.5498 90.0786 47.4323 90.2548 47.1973C90.4357 46.9573 90.5261 46.6098 90.5261 46.1548C90.5261 45.7098 90.4357 45.3673 90.2548 45.1273C90.0739 44.8823 89.8189 44.7598 89.4896 44.7598C89.1603 44.7598 88.9052 44.8823 88.7244 45.1273C88.5435 45.3673 88.4531 45.7098 88.4531 46.1548C88.4531 46.6048 88.5412 46.9498 88.7174 47.1898C88.8983 47.4298 89.1557 47.5498 89.4896 47.5498Z" fill="#1BBF00"/>
<path d="M93.6474 44.2573C94.459 44.2573 94.8648 44.7398 94.8648 45.7048V47.7373C94.8648 47.8323 94.8393 47.9073 94.7883 47.9623C94.7419 48.0123 94.6746 48.0373 94.5865 48.0373C94.4984 48.0373 94.4289 48.0123 94.3778 47.9623C94.3268 47.9073 94.3013 47.8323 94.3013 47.7373V45.7423C94.3013 45.4023 94.2387 45.1548 94.1135 44.9998C93.9929 44.8448 93.7981 44.7673 93.5291 44.7673C93.2184 44.7673 92.9703 44.8698 92.7848 45.0748C92.5993 45.2798 92.5065 45.5573 92.5065 45.9073V47.7373C92.5065 47.8323 92.481 47.9073 92.43 47.9623C92.3836 48.0123 92.3164 48.0373 92.2283 48.0373C92.1402 48.0373 92.0706 48.0123 92.0196 47.9623C91.9686 47.9073 91.9431 47.8323 91.9431 47.7373V44.5723C91.9431 44.4823 91.9686 44.4098 92.0196 44.3548C92.0706 44.2998 92.1402 44.2723 92.2283 44.2723C92.3117 44.2723 92.3767 44.2998 92.4231 44.3548C92.4741 44.4098 92.4996 44.4798 92.4996 44.5648V44.9473C92.6109 44.7223 92.7662 44.5523 92.9657 44.4373C93.1651 44.3173 93.3923 44.2573 93.6474 44.2573Z" fill="#1BBF00"/>
</svg>
